<?xml version="1.0" encoding="UTF-8"?>
<svg width="48" height="32" viewBox="0 0 48 32" fill="none" xmlns="http://www.w3.org/2000/svg">
  <rect width="48" height="32" rx="4" fill="white"/>
  <path d="M11.9 13.55c-.15.95-.9 6.2-.9 6.2l-.85-5.5H7.4L5 19.75h1.85l.85-5.5.9 5.5h1.85l1.7-6.2h-1.15zm4.35 3.1c-.05.3-.25.5-.5.55-.25.05-.5-.1-.45-.4.05-.3.25-.5.5-.55.3-.05.5.1.45.4zm.85-1.55h-1.7c-.15 0-.25.1-.3.25l-.85 5.4h1.7l.2-1.35h1.7c.8 0 1.5-.15 2.05-.5.85-.5 1.15-1.25 1.3-2.15.05-.35.05-.65 0-.9-.15-.75-.75-1.15-1.7-1.15h-2.4v.4zm14.5 0h-1.7c-.15 0-.25.1-.3.25l-.85 5.4h1.7l.2-1.35h1.7c.8 0 1.5-.15 2.05-.5.85-.5 1.15-1.25 1.3-2.15.05-.35.05-.65 0-.9-.15-.75-.75-1.15-1.7-1.15h-2.4v.4zm-8.65 0l-.4 2.8c0 .1.05.15.15.15h1.35c1 0 1.85-.2 2.4-.55.85-.5 1.15-1.25 1.3-2.15.05-.35.05-.65 0-.9-.15-.75-.75-1.15-1.7-1.15h-2.4c-.15 0-.25.1-.3.25l-.85 5.4h1.7l.2-1.35h1.7c.8 0 1.5-.15 2.05-.5.85-.5 1.15-1.25 1.3-2.15.05-.35.05-.65 0-.9-.15-.75-.75-1.15-1.7-1.15h-2.4v.4h-1.4z" fill="#253B80"/>
  <path d="M34.3 13.55c-.15.95-.9 6.2-.9 6.2l-.85-5.5h-2.75l-2.4 5.5h1.85l.85-5.5.9 5.5h1.85l1.7-6.2h-1.15zm-18.3 3.1c-.05.3-.25.5-.5.55-.25.05-.5-.1-.45-.4.05-.3.25-.5.5-.55.3-.05.5.1.45.4zm.85-1.55h-1.7c-.15 0-.25.1-.3.25l-.85 5.4h1.7l.2-1.35h1.7c.8 0 1.5-.15 2.05-.5.85-.5 1.15-1.25 1.3-2.15.05-.35.05-.65 0-.9-.15-.75-.75-1.15-1.7-1.15h-2.4v.4z" fill="#179BD7"/>
</svg> 