<?xml version="1.0" encoding="UTF-8"?>
<svg width="48" height="32" viewBox="0 0 48 32" fill="none" xmlns="http://www.w3.org/2000/svg">
  <rect width="48" height="32" rx="4" fill="#1A1F71"/>
  <path d="M18.5 21.5H15.5L17.5 10.5H20.5L18.5 21.5Z" fill="white"/>
  <path d="M27.5 10.8C26.9 10.6 25.9 10.3 24.7 10.3C21.9 10.3 19.9 11.7 19.9 13.7C19.8 15.2 21.3 16 22.4 16.5C23.5 17 23.9 17.3 23.9 17.8C23.9 18.5 23 18.8 22.2 18.8C21.1 18.8 20.5 18.6 19.6 18.3L19.2 18.1L18.8 20.7C19.5 21 20.7 21.2 22 21.2C24.9 21.2 26.9 19.8 26.9 17.7C26.9 16.5 26.1 15.6 24.4 14.8C23.4 14.3 22.7 14 22.7 13.4C22.7 12.9 23.3 12.4 24.5 12.4C25.5 12.4 26.3 12.6 26.9 12.8L27.2 12.9L27.5 10.8Z" fill="white"/>
  <path d="M31.5 17.3C31.8 16.5 32.9 13.7 32.9 13.7C32.9 13.7 33.1 13.2 33.2 12.8L33.4 13.6C33.4 13.6 34.1 16.6 34.2 17.3H31.5ZM35.9 10.5H33.6C32.9 10.5 32.4 10.7 32.1 11.4L28 21.5H31.1L31.7 19.8H35.4C35.5 20.2 35.8 21.5 35.8 21.5H38.5L35.9 10.5Z" fill="white"/>
  <path d="M13.7 10.5L10.8 17.8L10.5 16.5C9.9 14.7 8.3 12.8 6.5 11.8L9.2 21.5H12.3L17.3 10.5H13.7Z" fill="white"/>
  <path d="M8.3 10.5H3.5L3.4 10.7C6.7 11.5 8.9 13.8 9.7 16.5L8.9 11.4C8.7 10.7 8.5 10.5 8.3 10.5Z" fill="#F7B600"/>
</svg> 